<?xml version="1.0" encoding="UTF-8" standalone="no"?>
<!-- Created with Inkscape (http://www.inkscape.org/) -->

<svg
   width="36.991219mm"
   height="36.438046mm"
   viewBox="0 0 36.991219 36.438046"
   version="1.1"
   id="svg8474"
   xmlns="http://www.w3.org/2000/svg"
   xmlns:svg="http://www.w3.org/2000/svg"
   xmlns:rdf="http://www.w3.org/1999/02/22-rdf-syntax-ns#"
   xmlns:cc="http://creativecommons.org/ns#"
   xmlns:dc="http://purl.org/dc/elements/1.1/">
  <defs
     id="defs8468" />
  <metadata
     id="metadata8471">
    <rdf:RDF>
      <cc:Work
         rdf:about="">
        <dc:format>image/svg+xml</dc:format>
        <dc:type
           rdf:resource="http://purl.org/dc/dcmitype/StillImage" />
      </cc:Work>
    </rdf:RDF>
  </metadata>
  <g
     id="layer1"
     transform="translate(-77.867381,-13.032794)">
    <path
       style="fill:#000000;stroke-width:0.07737175"
       d="m 94.841008,49.409715 c -3.480583,-0.283132 -6.811049,-1.551815 -9.720177,-3.702732 -0.883415,-0.653169 -2.512722,-2.221251 -3.205904,-3.085435 -1.9086,-2.379435 -3.245161,-5.27577 -3.773216,-8.176584 -0.451134,-2.478254 -0.341453,-5.346215 0.296552,-7.754318 1.331102,-5.024151 4.73265,-9.228439 9.403523,-11.622682 1.763917,-0.904167 3.52802,-1.489202 5.497076,-1.823015 1.193365,-0.20231 3.645142,-0.27696 4.887977,-0.148826 4.391541,0.45276 8.263071,2.298101 11.385821,5.426976 2.76508,2.770501 4.49454,6.214428 5.10396,10.163708 0.1898,1.229966 0.18914,3.84138 -0.001,5.101728 -0.56951,3.769299 -2.27602,7.239117 -4.91502,9.993653 -3.82251,3.989846 -9.3819,6.081229 -14.959305,5.627527 z m 4.382836,-1.529207 c 3.961436,-0.685739 7.549356,-2.682903 10.106736,-5.625758 2.74605,-3.159965 4.16423,-6.916794 4.16423,-11.031242 0,-2.734801 -0.59512,-5.195471 -1.83901,-7.603879 -3.35008,-6.486383 -10.45409,-10.128767 -17.732143,-9.091663 -6.807968,0.970118 -12.374992,5.87567 -14.151221,12.469782 -0.505384,1.876199 -0.666555,4.582665 -0.387702,6.510486 1.103785,7.630903 7.142993,13.493071 14.928787,14.491152 1.216443,0.155939 3.665215,0.09665 4.910323,-0.118878 z m -8.360615,-4.508979 -1.851852,-0.02339 v -4.02932 -4.029321 h 0.623781 0.623782 v 3.53167 3.53167 l 1.423002,-3.07e-4 1.423002,-3.07e-4 1.28655,-3.532674 1.286549,-3.532672 0.732832,0.02048 0.732831,0.02048 1.372432,3.758294 1.372432,3.758293 0.02023,-3.783215 0.02023,-3.783215 2.00706,0.02492 c 2.20214,0.02734 2.36204,0.05753 2.96564,0.559864 0.44521,0.370506 0.59721,0.754078 0.59916,1.511902 0.002,0.617912 -0.015,0.688358 -0.23523,0.997118 -0.15629,0.219159 -0.38835,0.408479 -0.68183,0.556265 l -0.4449,0.224036 0.39739,0.132462 c 0.52487,0.17496 0.76193,0.357608 1.04426,0.804601 0.2001,0.31681 0.2378,0.460639 0.26079,0.994961 0.0429,0.997728 -0.28249,1.560026 -1.14489,1.978317 l -0.51551,0.250088 -2.06823,0.03839 c -1.13752,0.02111 -2.351818,0.0273 -2.698429,0.01375 l -0.630203,-0.02464 -0.373407,-1.069413 -0.373408,-1.069415 H 96.417806 94.79832 l -0.281724,0.786949 c -0.154948,0.432821 -0.32887,0.925144 -0.386492,1.09405 l -0.104768,0.307101 -0.655129,0.0028 c -0.360321,0.0015 -1.488462,-0.0077 -2.50698,-0.02058 z m 13.196611,-1.214785 c 0.89316,-0.516623 0.81164,-1.707002 -0.15079,-2.202064 -0.39673,-0.204067 -0.4571,-0.212211 -1.57324,-0.212211 h -1.16069 v 1.311654 1.311654 l 1.30604,-0.02567 c 1.14843,-0.02257 1.33895,-0.0447 1.57868,-0.183367 z m -6.393493,-1.979129 c 0,-0.05869 -1.18064,-3.389084 -1.212602,-3.420555 -0.01923,-0.01893 -0.05302,-0.01665 -0.07508,0.0051 -0.04589,0.04518 -1.204945,3.295671 -1.206453,3.383401 -5.46e-4,0.03167 0.560413,0.05758 1.246573,0.05758 0.68616,0 1.247563,-0.01148 1.247563,-0.02551 z m 5.977843,-1.56992 c 0.44106,-0.226673 0.67069,-0.565133 0.70987,-1.046291 0.0258,-0.316847 -0.003,-0.440486 -0.15055,-0.652566 -0.37807,-0.542395 -0.49087,-0.580026 -1.82534,-0.60896 l -1.20305,-0.02608 v 1.282397 1.282398 l 1.07212,-0.03198 c 0.90903,-0.02712 1.12154,-0.05738 1.39695,-0.198912 z m 3.69978,-0.05238 c -0.66734,-0.210674 -1.17362,-0.898288 -1.17688,-1.59842 -0.006,-1.282591 1.32818,-2.057074 2.5028,-1.452872 0.58587,0.301363 0.87518,0.769428 0.87843,1.421174 0.006,1.174801 -1.0869,1.982889 -2.20435,1.630118 z m 0.9523,-0.529853 c 0.78698,-0.32377 0.98895,-1.400447 0.3604,-1.921216 -0.51169,-0.423949 -1.15499,-0.400529 -1.62173,0.05904 -0.23918,0.235507 -0.27796,0.326981 -0.3033,0.715396 -0.0352,0.540083 0.13464,0.85935 0.58052,1.091051 0.35083,0.182308 0.63704,0.198516 0.98411,0.05573 z m -1.03928,-0.644679 c -0.0643,-0.01981 -0.16082,-0.09047 -0.21442,-0.157021 -0.33389,-0.414522 0.26844,-0.948807 0.64814,-0.574931 0.15364,0.151278 0.0172,0.244867 -0.15355,0.10533 -0.17001,-0.138924 -0.3698,-0.01364 -0.34287,0.215007 0.0209,0.177302 0.0548,0.198889 0.28404,0.180916 0.17128,-0.01343 0.24991,0.01032 0.2299,0.06944 -0.0389,0.114891 -0.29944,0.208001 -0.45124,0.161257 z m 0.92745,-0.04588 c -0.23219,-0.11334 -0.29355,-0.508899 -0.10738,-0.692212 0.15956,-0.157102 0.45582,-0.161039 0.585,-0.0078 0.12764,0.151433 0.0379,0.241155 -0.11564,0.115659 -0.18374,-0.150145 -0.36814,-0.03697 -0.33948,0.208344 0.022,0.188732 0.0528,0.209367 0.28503,0.191161 0.17129,-0.01343 0.24992,0.01032 0.2299,0.06944 -0.0511,0.150982 -0.33822,0.212621 -0.53743,0.11538 z M 88.465568,34.453737 c -1.764329,-0.561662 -2.803416,-1.945698 -2.806092,-3.73764 -0.0016,-1.048829 0.346591,-1.909053 1.078403,-2.6645 1.995668,-2.060122 5.397037,-1.398388 6.520755,1.268607 l 0.121307,0.287908 h -0.68507 -0.685069 l -0.149087,-0.272587 c -0.206375,-0.377331 -0.68265,-0.782184 -1.202554,-1.022217 -0.589359,-0.272102 -1.571479,-0.287884 -2.131559,-0.03425 -0.488736,0.221324 -1.119418,0.812713 -1.374799,1.289148 -0.183579,0.342481 -0.20659,0.470892 -0.206643,1.153152 -5.7e-5,0.730589 0.01303,0.791541 0.270454,1.259127 0.318527,0.578584 0.811708,0.995575 1.464216,1.238012 0.566167,0.210356 1.427896,0.184207 1.985912,-0.06026 0.439306,-0.192462 1.098403,-0.778995 1.231857,-1.096235 l 0.09566,-0.227398 h 0.690365 0.690365 l -0.07226,0.187142 c -0.453638,1.174835 -1.400661,2.072364 -2.558048,2.424356 -0.644756,0.196086 -1.675292,0.199542 -2.278112,0.0076 z m 13.217402,-0.198273 c -0.39902,-0.143773 -0.55448,-0.334916 -0.39784,-0.489154 0.0967,-0.09525 0.13872,-0.08877 0.31632,0.04878 0.29414,0.22782 0.60258,0.273857 0.93061,0.138901 0.30771,-0.126597 0.43643,-0.356885 0.43643,-0.780819 0,-0.269961 -0.0993,-0.345285 -0.21055,-0.159761 -0.28455,0.474396 -1.24594,0.309712 -1.54785,-0.265145 -0.17818,-0.339288 -0.16987,-1.072413 0.0157,-1.384442 0.35661,-0.599586 1.06368,-0.755251 1.51153,-0.33277 l 0.23116,0.21807 v -0.206302 c 0,-0.155119 0.0387,-0.206303 0.15595,-0.206303 0.15031,0 0.15595,0.05118 0.15595,1.416733 0,1.526129 -0.0445,1.747129 -0.38658,1.921325 -0.33128,0.168681 -0.86772,0.204516 -1.21083,0.08089 z m 0.92225,-1.4269 c 0.40472,-0.313464 0.43072,-1.157883 0.0473,-1.535442 -0.16713,-0.164561 -0.61026,-0.20095 -0.85791,-0.07045 -0.50085,0.263933 -0.50553,1.380414 -0.007,1.647137 0.29218,0.156288 0.58134,0.1417 0.81755,-0.04125 z m -8.759535,-1.142175 v -1.6944 h 0.194931 c 0.192123,0 0.194932,0.0091 0.194932,0.631287 0,0.588443 0.0081,0.619909 0.119258,0.463636 0.287353,-0.403953 1.095452,-0.356263 1.365988,0.08061 0.129286,0.208777 0.151641,0.389669 0.151889,1.229035 3.12e-4,0.976836 -10e-4,0.984043 -0.175146,0.959693 -0.169029,-0.02364 -0.176864,-0.06021 -0.214425,-1.001005 -0.04419,-1.106841 -0.101185,-1.226983 -0.582053,-1.226983 -0.191203,0 -0.350644,0.05796 -0.474439,0.172476 -0.173884,0.160848 -0.187925,0.235126 -0.208257,1.101727 -0.02106,0.897735 -0.02775,0.930084 -0.19724,0.953785 l -0.175438,0.02453 z m 2.645074,1.459299 c -0.161317,-0.15884 -0.22792,-0.299679 -0.22792,-0.481957 0,-0.494913 0.275065,-0.683754 1.155645,-0.793387 0.440676,-0.05486 0.529852,-0.14381 0.451674,-0.450509 -0.09038,-0.354557 -0.686846,-0.414942 -1.035383,-0.104819 -0.223785,0.19912 -0.535149,0.124609 -0.413621,-0.09898 0.120021,-0.220817 0.526464,-0.397084 0.927767,-0.402356 0.769748,-0.01011 0.941208,0.287312 0.941208,1.632658 v 0.923771 h -0.194932 c -0.154982,0 -0.194931,-0.03862 -0.194931,-0.188449 v -0.188448 l -0.191388,0.188448 c -0.153384,0.15103 -0.270697,0.188449 -0.590793,0.188449 -0.337485,0 -0.434741,-0.03479 -0.627326,-0.224421 z m 1.218119,-0.27113 c 0.138165,-0.136043 0.191388,-0.272221 0.191388,-0.48969 v -0.301241 l -0.521894,0.09657 c -0.360174,0.06665 -0.564336,0.148177 -0.65886,0.263116 -0.393726,0.478766 0.531518,0.882064 0.989366,0.431247 z m 1.049087,-0.765905 c 0,-1.22095 0.0063,-1.272134 0.155946,-1.272134 0.09924,0 0.155945,0.05118 0.155945,0.140755 0,0.21734 0.09192,0.257688 0.20973,0.09207 0.149191,-0.209729 0.583526,-0.31474 0.921614,-0.222824 0.45951,0.124929 0.54129,0.339695 0.57221,1.502771 l 0.0271,1.02082 h -0.20258 -0.20258 v -0.959693 c 0,-0.857325 -0.0166,-0.976071 -0.15595,-1.113243 -0.240446,-0.236758 -0.643221,-0.228775 -0.913868,0.01811 -0.157721,0.143878 -0.17507,0.240635 -0.194931,1.087184 -0.02106,0.897735 -0.02775,0.930084 -0.19724,0.953785 l -0.175439,0.02453 z m 5.411815,1.145091 c -0.54425,-0.274148 -0.75836,-1.229745 -0.42131,-1.880288 0.33874,-0.653792 1.22678,-0.771819 1.75129,-0.232759 0.17616,0.181046 0.23123,0.319877 0.25935,0.653816 l 0.0357,0.423964 h -0.93988 -0.93989 l 0.0712,0.24952 c 0.16336,0.572851 0.88576,0.800679 1.28678,0.40582 0.1446,-0.142378 0.23329,-0.174202 0.35844,-0.128617 0.16343,0.05953 0.16227,0.06502 -0.0671,0.317823 -0.20633,0.227386 -0.28682,0.260439 -0.69337,0.284735 -0.31324,0.01872 -0.53686,-0.01126 -0.70113,-0.09401 z m 1.23092,-1.534307 c -0.0373,-0.239398 -0.27898,-0.524018 -0.49274,-0.580307 -0.32362,-0.08522 -0.7147,0.08771 -0.86389,0.382004 -0.0731,0.144293 -0.11415,0.292385 -0.0911,0.329093 0.023,0.03671 0.36359,0.05685 0.75678,0.04475 0.66482,-0.02045 0.71321,-0.03275 0.69096,-0.175543 z m -16.669173,-5.4448 c -1.371036,-0.30822 -2.510375,-1.33831 -2.918182,-2.638364 -0.208282,-0.663983 -0.208993,-1.670405 -0.0016,-2.331014 0.512253,-1.632049 2.022678,-2.708979 3.784474,-2.698324 1.155546,0.007 2.046802,0.38473 2.82023,1.195296 0.441052,0.46223 0.679475,0.823296 0.840628,1.273039 l 0.1139,0.317871 H 92.724629 92.07828 l -0.290058,-0.414685 c -0.945828,-1.352212 -2.904919,-1.544441 -4.06479,-0.398844 -0.554085,0.547267 -0.761407,1.005593 -0.800676,1.770048 -0.02559,0.498179 7.02e-4,0.701894 0.135982,1.055122 0.333292,0.870012 1.274638,1.5983 2.215481,1.714046 0.913554,0.112388 2.00576,-0.392604 2.536775,-1.172904 l 0.274255,-0.403071 h 0.651555 c 0.639777,0 0.650573,0.0031 0.597309,0.172745 -0.325133,1.035383 -1.373653,2.062534 -2.490377,2.439621 -0.60872,0.205549 -1.503939,0.256162 -2.112209,0.119418 z m 11.221662,-0.843883 c -0.303825,-0.13463 -0.415497,-0.327959 -0.415497,-0.719323 0,-0.383031 0.158152,-0.525421 0.705358,-0.635055 0.80234,-0.160753 0.89188,-0.192814 0.9185,-0.328888 0.0146,-0.07447 -0.0299,-0.220083 -0.0987,-0.323573 -0.17287,-0.259784 -0.64509,-0.261361 -0.95669,-0.0032 -0.167609,0.138868 -0.25668,0.16655 -0.357374,0.111064 -0.104814,-0.05776 -0.116467,-0.106391 -0.05332,-0.222563 0.124158,-0.228429 0.495464,-0.380572 0.928774,-0.380572 0.32346,0 0.4373,0.0394 0.64715,0.223959 l 0.25464,0.22396 0.0271,1.042835 0.0271,1.042835 h -0.20258 c -0.1516,0 -0.20258,-0.03923 -0.20258,-0.15585 v -0.155848 l -0.21701,0.157973 c -0.28579,0.20805 -0.69809,0.258202 -1.004925,0.12224 z m 0.725031,-0.275617 c 0.23046,0 0.4969,-0.361627 0.4969,-0.674414 v -0.297517 l -0.52632,0.105768 c -0.64743,0.130106 -0.868701,0.309445 -0.7359,0.596438 0.09603,0.207526 0.37151,0.360184 0.54735,0.303312 0.0571,-0.01847 0.1552,-0.03359 0.21797,-0.03359 z m 3.43963,0.274141 c -0.56051,-0.196941 -0.77509,-0.527626 -0.77509,-1.194489 0,-0.807146 0.42794,-1.306438 1.11924,-1.305852 0.63896,5.37e-4 1.07959,0.453781 1.07959,1.11049 v 0.27118 h -0.94412 -0.94413 l 0.0527,0.211133 c 0.0879,0.352041 0.26014,0.545072 0.55881,0.626272 0.3159,0.08588 0.77561,-0.0485 0.854,-0.249638 0.0506,-0.129826 0.34475,-0.07829 0.34475,0.0604 0,0.149291 -0.34281,0.424123 -0.63028,0.505302 -0.32945,0.09304 -0.35524,0.09178 -0.71549,-0.03479 z m 1.03388,-1.6212 c 0,-0.289422 -0.32525,-0.572327 -0.658,-0.572327 -0.30645,0 -0.69658,0.296214 -0.78365,0.59501 -0.0497,0.17056 -0.0409,0.172745 0.69565,0.172745 h 0.746 z m -11.1501,-0.0349 v -1.689059 h 0.194932 0.194932 v 1.689059 1.68906 H 94.196562 94.00163 Z m 0.8577,0.422265 c 0,-1.21561 0.0063,-1.266794 0.155945,-1.266794 0.149645,0 0.155946,0.05118 0.155946,1.266794 0,1.215611 -0.0063,1.266795 -0.155946,1.266795 -0.149644,0 -0.155945,-0.05118 -0.155945,-1.266795 z m 0.935672,0 c 0,-1.21561 0.0063,-1.266794 0.155946,-1.266794 0.115788,0 0.155945,0.05118 0.155945,0.198763 v 0.198764 l 0.239901,-0.198764 c 0.329561,-0.273049 0.787903,-0.274475 1.043191,-0.0032 l 0.184027,0.195519 0.198569,-0.195519 c 0.148377,-0.146102 0.279596,-0.195523 0.51913,-0.195523 0.703137,0 0.856118,0.28766 0.856118,1.609818 v 0.923771 H 98.952897 98.757965 V 24.46855 c 0,-0.939854 -0.0094,-1.000205 -0.173295,-1.113243 -0.238804,-0.164697 -0.575827,-0.149652 -0.762377,0.03403 -0.139312,0.137173 -0.155946,0.255918 -0.155946,1.113244 v 0.959693 h -0.194931 -0.194932 v -0.959693 c 0,-0.857326 -0.01663,-0.976071 -0.155946,-1.113244 -0.168006,-0.165426 -0.469359,-0.19924 -0.698679,-0.0784 -0.226138,0.119168 -0.314966,0.501772 -0.314966,1.356647 0,0.743502 -0.01004,0.794686 -0.155945,0.794686 -0.149645,0 -0.155946,-0.05118 -0.155946,-1.266795 z m 6.585148,1.078346 c -0.18201,-0.179222 -0.19138,-0.23373 -0.19138,-1.113244 V 23.23575 h -0.19494 c -0.14295,0 -0.19493,-0.04095 -0.19493,-0.15355 0,-0.112605 0.052,-0.153551 0.19493,-0.153551 0.17544,0 0.19494,-0.03071 0.19494,-0.307102 0,-0.276392 0.0195,-0.307102 0.19493,-0.307102 0.17544,0 0.19493,0.03071 0.19493,0.307102 0,0.29979 0.007,0.307102 0.2729,0.307102 0.22093,0 0.27291,0.02925 0.27291,0.153551 0,0.124303 -0.052,0.15355 -0.27291,0.15355 h -0.2729 v 0.867563 c 0,0.920983 0.0456,1.051823 0.36647,1.051823 0.12736,0 0.17934,0.04451 0.17934,0.153551 0,0.235261 -0.49341,0.212126 -0.74429,-0.0349 z m -7.568497,-2.915571 c -0.07764,-0.199207 0.03118,-0.363853 0.222767,-0.337066 0.128868,0.01802 0.175787,0.07581 0.175787,0.216518 0,0.140708 -0.04692,0.198499 -0.175787,0.216517 -0.105441,0.01474 -0.194588,-0.02366 -0.222767,-0.09597 z"
       id="path12957" />
  </g>
</svg>
